<svg viewBox="0 0 146 210" id="bibendum"><g fill="none" fill-rule="evenodd"><g transform="translate(0 .055)"><path fill="#000" d="M145.076 104.117s.703-2.84-1.194-5.97c-2.589-4.27-7.612-9.403-7.612-9.403s.028-.9-.299-1.493c-.277-.502-.746-.896-.746-.896s1.84-3.733.15-7.462c-1.4-3.086-4.777-4.478-4.777-4.478s-.131-2.505-1.94-5.373c-1.527-2.421-4.03-3.731-4.03-3.731s-.277-1.296-.896-2.389c-.649-1.145-1.641-2.09-1.641-2.09s.265-3.582-1.194-7.014c-1.454-3.419-3.583-4.478-3.583-4.478s.767-5.73-3.582-10.597c-4.918-5.505-10.597-5.224-10.597-5.224s-2.544-.734-5.075-1.194c-2.39-.435-4.776-.597-4.776-.597s3.175-1.507 2.687-7.91c-.373-4.884-4.926-7.762-4.926-7.762s.04-3.986-3.433-8.657c-2.713-3.65-6.417-4.477-6.417-4.477S79.509-.509 74.776.235c-4.638.729-5.671 4.03-5.671 4.03s-3.678 2.324-5.373 6.12c-1.738 3.89-1.493 8.955-1.493 8.955s-3.546 3.504-3.284 8.209c.221 3.962 4.329 7.463 4.329 7.463s-1.835.47-3.583 1.343c-1.97.985-3.88 2.388-3.88 2.388s-2.297-1.1-5.523-.746c-2.835.311-5.373 1.94-5.373 1.94s-2.887-.703-5.075-.597c-2.426.117-3.731.895-3.731.895l-1.492-.149s-.963-2.79-2.388-4.477c-1.411-1.67-3.284-2.239-3.284-2.239s-.886-2.9-2.687-4.776c-1.78-1.855-4.477-2.687-4.477-2.687s-.081-.532-.3-.895a1.89 1.89 0 0 0-.596-.597s1.08-1.284 1.492-3.135c.378-1.694.089-4.1.15-4.478.128-.79 3.396-4.328.15-6.119-.374-.205-1.863-.678-3.434.298-1.108.69-1.602 2.18-1.94 3.135-.1.282-.564-.423-.746-.746-.146-.258-2.544-6.06-5.97-9.403-2.163-2.11-3.881-.597-3.881-.597s-1.065-.835-2.538-.448c-1.006.264-1.492 1.343-1.492 1.343S1.35 4.803.895 5.907c-.439 1.059 0 2.686 0 2.686S-.901 9.683.596 15.46c1.782 6.873 7.612 14.478 7.612 14.478s-.149.356-.149.746c0 .43.15.896.15.896s-2.21 2.494-1.643 6.716c.465 3.447 3.284 6.269 3.284 6.269s.05 5.63 3.732 9.105c3.66 3.456 7.164 3.582 7.164 3.582s.969 3.589 3.88 5.82c2.505 1.92 5.672 2.09 5.672 2.09s2.626 3.833 7.612 4.777c4.297.813 7.612-.448 7.612-.448s1.313.61 2.687 1.045c1.46.46 2.985.746 2.985.746s-.568 3.46 0 6.716c.551 3.16 2.239 6.12 2.239 6.12s-2.115 3.985-2.687 7.91c-.547 3.758.448 7.463.448 7.463s-3.153 5.393-4.18 10.448c-.905 4.46.3 8.657.3 8.657s-1.972 2.892-2.538 5.97c-.625 3.399.15 7.015.15 7.015s-2.72 2.086-3.732 4.926c-.925 2.598-.15 5.97-.15 5.97s-2.38 3.638-3.134 7.164c-.914 4.28.597 6.866.597 6.866s-3.29 3.731-3.283 9.552c.005 4.565 2.686 8.21 2.686 8.21s-.706 1.842-1.343 3.88c-.495 1.585-.952 3.35-1.791 5.672-1.2 3.32-3.05 7.047-3.582 10.746-1.11 7.702.91 14.851 6.716 15.225 5.39.346 9.294-5.199 10.896-11.493.913-3.588 0-7.31.895-10.598 1.284-4.712 2.389-8.656 2.389-8.656s4.944-2.178 7.462-6.27c3.02-4.904 1.791-10.149 1.791-10.149s2.758-2.527 3.88-5.373c1.116-2.826.598-5.97.598-5.97s2.356-1.752 3.284-4.18c1.008-2.638.597-5.97.597-5.97s2.896-1.616 4.776-5.522c2.093-4.349 1.94-8.209 1.94-8.209l1.194-1.194s.221 3.92 1.194 7.164c1.04 3.466 2.836 6.269 2.836 6.269s-.97 2.144-1.045 4.18c-.074 1.994.747 3.88.747 3.88s-2.537 2.243-2.836 7.462c-.213 3.72 1.492 7.314 1.492 7.314s-2.843 4.361-1.492 11.045c1.15 5.689 4.78 7.987 4.776 8.21-.017 1.025-.455 2.369-1.493 5.373-.903 2.614-2.502 5.554-3.134 8.06-.57 2.257-.15 4.775-.15 4.775s-.531 1.433.3 2.986c1.35 2.523 7.146 2.47 17.76 2.388 9.995-.079 20.587 1.837 24.18-1.194 1.452-1.224.299-4.329.299-4.329.004.004-.03-2.313-2.985-3.731-3.852-1.848-9.716-2.28-14.628-4.777-5.337-2.712-4.925-7.611-4.925-7.611s5.264-1.975 7.314-7.165c3.31-8.384-.15-13.284-.15-13.284s1.887-2.746 2.24-6.268c.493-4.932-1.046-8.06-1.046-8.06s1.8-2.214 1.94-4.776c.184-3.359-1.492-5.373-1.492-5.373s1.85-1.463 2.985-7.016c1.505-7.354-.149-11.343-.149-11.343s1.88-4.9 1.94-9.85c.073-5.997-2.686-9.702-2.686-9.702s1.896-1.446 2.388-6.419c.499-5.05-1.194-8.06-1.194-8.06s1.155 1.014 2.388 1.493c1.438.56 2.985.597 2.985.597s1.11 2.86 4.478 4.776c3.54 2.016 5.97 1.194 5.97 1.194s.569.835 1.194 1.344c.565.46 1.194.597 1.194.597s.32 1.274.299 2.836c-.016 1.148-.402 2.384-.3 3.731.113 1.47.471 2.722.747 3.88.96 4.032 1.169 4.95 4.03 4.926 2.021-.016 2.388-1.642 2.388-1.642s.643.452 1.194.746a6.49 6.49 0 0 0 1.045.448s.274.542.746.896c.42.315 1.045.448 1.045.448s2.203 1.762 4.329.298c2.917-2.01.746-8.806.746-8.806" mask="url(#bibendum_b)"></path></g><path fill="#FFF" d="M119.255 201.637s-3.304 1.066-9.851 1.044c-4.988-.016-10.376-.568-12.24-.597-1.919-.03-6.328.22-10 0-3.562-.213-6.417-.895-6.417-.895s-.24 1.304 3.731 1.79c3.274.402 7.384.008 11.493.15 4.108.142 10.97 1.266 18.806.597 5.546-.473 4.478-2.09 4.478-2.09m-18.508-9.253c-4.231-3.158-4.646-7.56-4.776-7.762-.13-.202-2.76.038-5.373-.298-2.61-.336-4.711-1.229-5.075-1.045-.364.184-.63 3.016-2.09 5.97-2.037 4.125-3.51 7.933-2.686 9.702.359.771 2.74 1.401 6.268 1.642 2.604.177 5.858.03 9.254.149 3.939.137 7.972.57 11.642.597 5.942.043 10.707-.452 10.896-1.045 1.027-3.21-12.431-3.71-18.06-7.91m3.193-27.239c-.108-.06-3.152 1.829-11.85 2.015-7.933.168-10.18-2.28-10.448-2.09-.267.19-2.53 3.739 0 10.746 3.177 8.799 18.108 7.271 21.194 1.493 3.737-6.995 1.476-11.96 1.105-12.164m.985-15.15c-.286-.194-6.178 1.008-11.343.746-5.167-.261-9.62-1.643-10-1.492-2.723 1.073-3.832 10.827-.747 13.582 1.71 1.526 6.418 2.108 9.702 2.09 5.458-.03 9.955-1.272 10.895-2.538 3.421-4.607 1.78-12.194 1.493-12.388m.299-10s-4.554 1.625-10.747 1.492c-5.251-.112-10.392-1.026-10.597-.895-.412.262-.856 1.758-.896 3.433-.035 1.527.398 2.633.747 2.985.348.352 5.574 1.6 11.045 1.79 5.194.182 9.666-.753 10-1.044.333-.291 1.604-1.784 1.642-3.731.037-1.933-1.194-4.03-1.194-4.03m3.134-17.164c-.336-.081-6.456 2.322-13.135 2.537-7.252.232-13.886-1.482-14.776-1.642-.519-.093-.14 11.621 3.134 14.18 2.064 1.611 20.061 2.328 22.389-1.045 4.136-5.996 2.606-13.979 2.388-14.03"></path><path fill="#FFF" d="M107.015 102.232s-2.927.888-7.014 2.537c-3.16 1.276-6.659 3.239-10.896 4.329-4.745 1.22-6.716.895-6.716.895s.226 2.888-.15 5.672c-.37 2.738-1.343 5.373-1.343 5.373s3.46 2.427 11.791 2.24c9.91-.225 14.203-2.247 14.478-2.837 5.715-12.241-.15-18.209-.15-18.209M80 109.993c-.073-.196-6.549-.302-14.477-2.537-7.586-2.138-12.171-5.99-12.538-5.821-.731.337-6.206 10.939-2.836 17.164 3.37 6.225 18.364 10.788 24.478 6.717 6.114-4.071 5.69-14.672 5.373-15.523"></path><path fill="#FFF" d="M73.731 128.65c-.086-.172-4.925 1.936-13.582-.448-7.774-2.14-11.295-6.86-11.492-6.716-.51.368-3.03 4.19-.299 11.045 2.701 6.782 14.184 10.861 20.299 6.567 5.023-3.528 5.349-9.902 5.074-10.448"></path><path fill="#FFF" d="M67.463 142.531c-.19-.185-5.377 2.239-12.687-.896-5.998-2.57-8.403-7.754-8.657-7.612-.253.143-4.041 2.403-2.537 8.359 1.668 6.604 15.351 9.239 20 7.313 4.053-1.678 4.23-6.826 3.88-7.164"></path><path fill="#FFF" d="M63.582 152.233c-.08-.117-5.405 1.355-12.239-.746-6.408-1.971-8.972-6.289-9.254-6.12-.281.169-3.368 5.125-.895 10.895 2.654 6.194 12.56 8.202 18.508 4.479 4.49-2.812 4.133-8.137 3.88-8.508"></path><path fill="#FFF" d="M59.403 164.024c-.3-.241-5.55 1.974-11.343.448-5.667-1.493-7.83-5.28-8.06-5.374-.39-.158-3.86 3.706-1.94 10.448 2.118 7.442 11.26 9.926 17.313 4.777 4.415-3.757 4.391-10.009 4.03-10.299"></path><path fill="#FFF" d="M48.955 179.547c-.09-.251-2.605.01-4.627-.598-2.162-.65-3.842-2.163-4.03-2.09-.244.096-.292 1.977-.448 2.389-.155.411-.641.328-.746.15-.104-.18-.11-.638-.298-.598-.19.04-5.602 11.922-5.523 16.419.08 4.496 1.672 9.703 4.776 10.448 4.054.972 9.094-5.154 9.404-9.403.31-4.25.677-13.015.895-14.18.218-1.166.782-2.019.597-2.537"></path><path fill="#FFF" d="M44.03 205.07c-.42-.287-2.67 2.971-6.568 1.94-3.155-.835-4.397-6.56-4.925-6.418-.528.14.967 7.125 5.522 7.612 3.987.425 6.39-2.848 5.97-3.135"></path><path fill="#000" d="M40.746 194.92c-2.094-.12-5.52-.41-5.522.597-.003 1.008 2.267.484 4.925.747 2.4.236 5.214.724 5.224.298.011-.493-2.533-1.521-4.627-1.642"></path><path fill="#FFF" d="M107.464 86.41c-.403-.051-6.994 7.651-25.822 7.762-18.39.108-25.888-7.765-26.269-7.612-.38.153-1.735 3.028-2.09 6.418-.314 3.005 0 5.296.747 6.418.746 1.123 7.837 6.75 24.03 8.06 7.501.606 11.726-.687 19.403-4.329 6.202-2.941 9.851-3.433 9.851-3.433s1.902-3.175 1.94-6.567c.037-3.247-1.388-6.664-1.79-6.716"></path><path fill="#FFF" d="M107.613 70.44c-.085-.021-8.652 7.433-26.568 7.612-17.09.171-26.884-7.155-27.165-6.716-.28.439-2.213 9.946 4.926 14.776 12.355 8.36 39.673 6.08 46.717-1.194 6.473-6.684 2.175-14.455 2.09-14.478"></path><path fill="#FFF" d="M108.359 51.037s-8.153 6.797-22.687 7.761c-12.325.818-22.687-1.045-22.687-1.045s-.957 3.664-2.537 6.568c-1.628 2.99-3.936 4.992-3.88 5.224.054.232 7.22 6.22 26.865 5.97 16.327-.207 24.908-8.354 26.568-11.493 3.524-6.664-1.642-12.985-1.642-12.985"></path><path fill="#FFF" d="M108.956 44.022c-1.912-10.586-18.21-9.552-18.21-9.552s-.67.985-1.492 1.79c-.66.648-1.48 1.143-1.641 1.195-.365.116-.508-.077-.3-.448.094-.166.538-.544.896-1.045.444-.618.802-1.37.747-1.492-.1-.222-1.825.161-2.09.149-.265-.012-.444-.078-.15-.298.296-.221 6.716-3.298 7.016-8.508.283-4.92-5.835-9.181-5.821-9.403.014-.222.597-.299.597-.299s-.35-4.629-3.582-8.209c-3.601-3.987-6.53-3.726-6.717-3.73-.21-.007-.267-.11-.11-.233.17-.135.946-.14 1.006-.216.06-.076-.951-1.613-3.582-1.343-2.681.275-3.8 1.878-3.732 1.94.07.062.824-.042 1.045 0 .221.043.351.308 0 .448s-3.895 1.319-6.418 5.672c-1.955 3.371-2.11 8.038-1.642 8.507.468.47.934-.006 1.515-.204.973-.334.79.192.426.353-.128.057-5.706 2.832-4.777 9.105.88 5.934 7.196 7.52 7.463 7.612.267.092.44.47.15.597-.29.128-.592.115-1.046.15-.513.04-1.044 0-1.044 0s.524.702 1.194 1.193c.682.501 1.511.792 1.642.896.177.142.127.486-.299.448-.425-.04-1.296-.108-2.388-.597-1.072-.481-1.94-1.344-1.94-1.344s-2.018.58-3.88 1.493c-1.794.878-3.434 2.09-3.434 2.09s2.373 3.013 3.582 6.567c1.253 3.683 1.343 7.91 1.343 7.91s8.229 2.07 21.344 1.045c14.368-1.122 25.313-6.793 24.329-12.239M56.12 41.784c-2.968-2.677-8.155-.908-7.762-.3.178.277 4.776 3.139 5.075 13.733.257 9.094-4.41 11.296-4.627 12.388-.123.613 3.59 1.463 5.672.298 3.494-1.956 5.887-6.915 6.418-12.09.71-6.925-2.588-12.055-4.776-14.03"></path><path fill="#FFF" d="M48.507 45.067c-3.957-4.766-9.737-3.407-9.403-2.985.335.422 5.3 4.884 3.284 12.687-2.097 8.117-9.39 9.739-9.553 10.149-.161.41 4.325 4.491 10.448 2.985 9.675-2.38 9.679-17.47 5.224-22.836"></path><path fill="#FFF" d="M40.298 47.903c-2.208-5.744-5.373-5.374-5.373-5.374s.753 4.838-3.88 10.15c-2.948 3.378-8.165 4.177-8.21 4.478-.28 1.88 4.408 5.661 6.472 5.71 8.918.211 12.965-9.831 10.991-14.964"></path><path fill="#FFF" d="M28.955 35.813s-.152 5.074-6.12 8.508c-5.104 2.936-10.746 1.492-10.746 1.492s.988 6.078 5.224 8.06c8.338 3.9 15.095-4.105 15.373-8.806.415-7.013-3.658-9.24-3.73-9.254"></path><path fill="#FFF" d="M21.641 28.052c-.206.085-.185.582-.597 1.194-.29.432-.657.871-.802.97-.255.175-.602.24-.54-.224.06-.457 1.375-4.032-.449-4.328-.303-.05-.834.721-1.045.746-.21.025-.407.009-.447-.298-.02-.148.498-.695 1.044-1.493.598-.872 1.241-2.027 1.493-2.836.483-1.55.444-4.368.746-5.523.303-1.154 1.674-3.18 1.344-3.581-1.265-1.538-2.827.032-3.284 1.194-.413 1.048-.093 2.736-1.343 4.179-.625.72-1.447.868-1.792.597-.298-.235.736-1.208.674-1.803-.063-.596-1.59-2.823-3.061-5.81-.818-1.657-2.135-3.437-2.986-4.626-1.773-2.48-3.152-1.686-3.134-1.194.004.098.757 1.116 1.492 2.388.833 1.439 1.696 3.203 2.389 4.328.392.637.636.519.895.747.26.227.441.911.299 1.044-.143.133-.848.014-1.045-.149-.198-.164-.44-.542-1.045-1.642-1.139-2.07-2.94-5.506-4.03-6.716-1.25-1.388-2.268.114-2.239.298.014.083 1.139 1.973 2.24 4.03.542 1.014 1.183 2.387 1.79 3.284.4.588.832.784 1.045 1.194.354.681-.008 1.031-.299.895-.207-.096-.58-.201-1.343-1.492-.308-.521-.877-1.542-1.194-2.24-.846-1.86-2.225-5.01-2.985-5.074-1.472-.122-1.045 2.24-1.045 2.24s1.273-.163 1.791.895c.404.823.62 3.124 1.045 4.179.737 1.831 1.524 2.304 1.194 2.537-.687.484-1.297-.693-1.94-2.537-.62-1.78-.57-3.402-1.045-3.88-.532-.538-1.507-.17-1.642.745-.18 1.22.245 4.676 2.24 9.404.615 1.46 1.753 3.052 2.536 4.328 1.805 2.94 3.284 4.925 3.284 4.925s.427.239.895.299c.576.074 1.212-.016 1.195.15-.033.3-1.56.704-1.642 1.492-.082.787.336 1.112 1.045 1.642.785.586 1.95.603 1.94.746-.02.272-1.137.69-2.24.447-.857-.189-1.352-.62-1.491-.597-.286.05-2.631 5.848 1.492 9.403 6.155 5.308 15.645-1.848 15.97-6.567.399-5.783-5.167-7.995-5.373-7.91m93.285 17.612c-1.077-5.217-5.717-8.168-5.82-7.761-.105.407 2.088 2.422 2.387 5.82.247 2.8-1.492 5.374-1.492 5.374s.946 1.18 1.642 2.388a18.786 18.786 0 0 1 1.194 2.537s3.231-2.83 2.09-8.358m2.089 6.418c-.17-.063-.493 1.16-1.194 2.24-.76 1.166-1.746 2.21-1.791 2.536-.088.628-.02 3.91-.896 6.418-.953 2.727-3.284 4.776-3.284 4.776s.11 1.412.598 1.642c.487.23 6.432-1.98 8.656-7.612 2.202-5.575-1.735-9.87-2.09-10m4.329 11.343c-.163-.013-2.075 3.197-4.627 5.374-2.522 2.151-5.416 2.959-5.522 3.283-.106.325.37 1.757.448 3.284.07 1.376-.593 2.274-.15 2.537.444.263 5.729.544 9.254-4.179 4.344-5.82.76-10.285.597-10.299"></path><path fill="#FFF" d="M125.076 68.65c-.185.357-.23 5.283-5.075 8.806-4.197 3.05-8.806 2.835-8.806 2.835s-.113.713-.299 1.344a9.533 9.533 0 0 1-.447 1.194s2.648 4.1 7.014 3.582c5.41-.643 10.412-4.756 11.046-9.702.742-5.794-3.248-8.417-3.433-8.06"></path><path fill="#FFF" d="M130.3 76.71c-.048.423.358 3.77-3.881 7.76-3.35 3.154-7.892 3.65-7.91 3.881-.02.23 1.92 3.557 5.372 3.583 5.158.036 9.926-5.088 10-9.553.068-4.054-3.534-6.095-3.581-5.672m12.985 28.359c-.157-.332-1.17-1.827-1.642-2.985-.495-1.216-.573-1.955-.15-1.94.279.009.33.789.598 1.194.358.541.74.94.895.895.156-.046-.509-3.485-2.835-6.269-2.12-2.536-4.05-5.004-4.329-4.925-.279.079-.507.57-.746.895-.201.272-.622.32-.597-.149.007-.143.205-.861.15-1.642-.056-.773-.238-1.19-.598-1.642-.093-.117-.942 1.378-2.239 2.538-1.521 1.36-3.433 2.537-3.433 2.537s.946 1.035 1.94 1.194c.862.138 1.296-.114 1.642-.298.408-.218.501-.08.448.149-.049.211-.25.455-.448.597-.37.265-.986.313-1.044.448-.027.06.293 1.702.298 3.433.006 2.089-.448 2.864-.298 4.328.055.542.557 1.965.895 3.433.165.717.15 1.507.299 2.09.466 1.817 2.908.744 2.537-1.045-.205-.989-.92-2.416-.746-3.284.29-1.445 1.642-2.09 1.642-2.09s.06-.434.597-.597c.268-.08 3.822 1.772 4.776 4.18 1.015 2.561.337 3.954.746 4.627.904 1.486 2.194.223 2.239-.747.035-.745-.057-3.782-.597-4.925"></path><path fill="#FFF" d="M140.598 109.247c-.067-.582-.087-1.313-.15-1.344-.06-.03-.585.254-.596 1.344-.01 1.09 1.018 1.255 1.045 1.194.026-.062-.22-.515-.299-1.194m-.746-3.134c-.04-.112-.871-.9-1.642-1.642-.96-.925-1.762-1.824-1.94-1.791-.143.026-.44.65-.597 1.492-.197 1.06-.188 2.418.448 2.836.753.496 1.38.094 1.492-1.045.07-.7.184-.948.299-1.044.114-.097.26-.01.298.149.022.088-.411 1.488-.298 2.686.092.978.556 1.732 1.194 1.642.682-.096.531-.901.597-1.493.095-.859.238-1.54.15-1.79"></path><path fill="#000" d="M86.866 23.425c-.31-.55-.746-.747-.895-.448-.15.298.331.48.298.597-.015.055-1.186 1.618-6.7 2.177-4.168.407-6.979-.606-7.33-.535-.35.07-.359.509-.15.597.21.089 2.069.398 2.389.597.32.2 2.863 2.528 5.493 2.327 3.096-.236 4.45-2.925 4.781-3.26.232-.233.906-.671 1.413-1.012.34-.23.51-.308.552-.294.103.036.235.317.299.299.063-.019.175-.47-.15-1.045"></path><path fill="#FFF" d="M83.475 25.863c-.133-.01-1.616.49-3.624.696-1.845.19-3.819-.063-3.88 0-.031.031.569.781 1.59 1.106 1.508.481 3.326.402 4.678-.36.961-.541 1.298-1.437 1.236-1.442"></path><path fill="#000" d="M72.09 24.022c-.38.11-.743.365-1.045.896-.245.429-.18.716-.15.895.04.229.24.343.3.15.028-.095-.006-.244.596-.896.345-.373.427-.35.597-.448.423-.242.173-.734-.298-.597m1.343-12.09c-2.024.287-2.794 2.166-2.836 4.627-.038 2.229.98 3.836 1.94 4.03.52.105 2.354.083 2.725-.123 1.27-.704 1.745-2.355 1.753-4.355.013-3.094-1.745-4.439-3.582-4.179"></path><path fill="#FFF" d="M72.091 13.672c-.228.269-.926 1.283-.946 2.687-.036 2.562 1.161 3.562 1.223 3.532.061-.03-.443-.827-.565-1.587-.109-.679.038-1.353.038-1.353s.336.537.799.456c.281-.05.888-.376.66-1.488-.14-.696-.75-.65-.759-.646 0 0 .375-.588 1.02-.795.658-.212 1.748.057 2.207 1.208.797 2-.243 3.815-.19 3.884.036.047.797-.7 1.068-2.562.479-4.004-2.645-5.58-4.555-3.336"></path><path fill="#000" d="M85.603 14.623c-.597-2.456-2.018-3.826-3.978-3.435-2.248.45-2.376 3.257-2.184 4.814.21 1.705 1.306 3.736 2.336 3.913.888.152 2.39-.115 2.926-.483 1.012-.694 1.282-3.231.9-4.809"></path><path fill="#FFF" d="M85.277 15.729c-.268-3.787-3.756-4.87-5.047-2.517-.187.343-.496 1.617-.255 3.2.291 1.912 1.648 2.93 1.714 2.889.066-.041-.522-.477-.846-1.38-.306-.852-.258-1.792-.258-1.792s.48.68.984.534c.306-.088.715-.471.5-1.438-.207-.923-.993-.733-1.002-.727 0 0 .198-.465.98-.77.823-.322 2.096.293 2.58 1.936.593 2.018-.205 3.073-.149 3.134.039.042.954-.914.8-3.07"></path></g></svg>